<?xml version="1.0" encoding="utf-8"?>
<svg version="1.1" xmlns:xlink="http://www.w3.org/1999/xlink" width="1756px" height="400px" xmlns="http://www.w3.org/2000/svg">
  <defs>
    <filter x="24px" y="67px" width="1756px" height="400px" filterUnits="userSpaceOnUse" id="filter10">
      <feOffset dx="3" dy="3" in="SourceAlpha" result="shadowOffsetInner" />
      <feGaussianBlur stdDeviation="2.5" in="shadowOffsetInner" result="shadowGaussian" />
      <feComposite in2="shadowGaussian" operator="atop" in="SourceAlpha" result="shadowComposite" />
      <feColorMatrix type="matrix" values="0 0 0 0 0.8431372549019608  0 0 0 0 0.8431372549019608  0 0 0 0 0.8431372549019608  0 0 0 0.34901960784313724 0  " in="shadowComposite" />
    </filter>
    <g id="widget11">
      <path d="M 27 77  A 7 7 0 0 1 34 70 L 1764 70  A 7 7 0 0 1 1771 77 L 1771 451  A 7 7 0 0 1 1764 458 L 34 458  A 7 7 0 0 1 27 451 L 27 77  Z " fill-rule="nonzero" fill="#ffffff" stroke="none" />
      <path d="M 26.5 77  A 7.5 7.5 0 0 1 34 69.5 L 1764 69.5  A 7.5 7.5 0 0 1 1771.5 77 L 1771.5 451  A 7.5 7.5 0 0 1 1764 458.5 L 34 458.5  A 7.5 7.5 0 0 1 26.5 451 L 26.5 77  Z " stroke-width="1" stroke="#d7d7d7" fill="none" stroke-opacity="0.7725490196078432" />
    </g>
  </defs>
  <g transform="matrix(1 0 0 1 -24 -67 )">
    <use xlink:href="#widget11" filter="url(#filter10)" />
    <use xlink:href="#widget11" />
  </g>
</svg>