<?xml version="1.0" encoding="utf-8"?>
<svg version="1.1" xmlns:xlink="http://www.w3.org/1999/xlink" width="16px" height="16px" viewBox="330 531  16 16" xmlns="http://www.w3.org/2000/svg">
  <path d="M 330.5 535  A 3.5 3.5 0 0 1 334 531.5 L 342 531.5  A 3.5 3.5 0 0 1 345.5 535 L 345.5 543  A 3.5 3.5 0 0 1 342 546.5 L 334 546.5  A 3.5 3.5 0 0 1 330.5 543 L 330.5 535  Z " fill-rule="nonzero" fill="#ffffff" stroke="none" />
  <path d="M 330.5 535  A 3.5 3.5 0 0 1 334 531.5 L 342 531.5  A 3.5 3.5 0 0 1 345.5 535 L 345.5 543  A 3.5 3.5 0 0 1 342 546.5 L 334 546.5  A 3.5 3.5 0 0 1 330.5 543 L 330.5 535  Z " stroke-width="1" stroke="#7f7f7f" fill="none" />
</svg>