<?xml version="1.0" encoding="utf-8"?>
<svg version="1.1" xmlns:xlink="http://www.w3.org/1999/xlink" width="1531px" height="53px" xmlns="http://www.w3.org/2000/svg">
  <defs>
    <filter x="341px" y="446px" width="1531px" height="53px" filterUnits="userSpaceOnUse" id="filter6">
      <feOffset dx="2" dy="2" in="SourceAlpha" result="shadowOffsetInner" />
      <feGaussianBlur stdDeviation="0.5" in="shadowOffsetInner" result="shadowGaussian" />
      <feComposite in2="shadowGaussian" operator="atop" in="SourceAlpha" result="shadowComposite" />
      <feColorMatrix type="matrix" values="0 0 0 0 0.6666666666666666  0 0 0 0 0.6666666666666666  0 0 0 0 0.6666666666666666  0 0 0 0.34901960784313724 0  " in="shadowComposite" />
    </filter>
    <g id="widget7">
      <path d="M 342 454  A 7 7 0 0 1 349 447 L 1861 447  A 7 7 0 0 1 1868 454 L 1868 488  A 7 7 0 0 1 1861 495 L 349 495  A 7 7 0 0 1 342 488 L 342 454  Z " fill-rule="nonzero" fill="#ffffff" stroke="none" />
      <path d="M 341.5 454  A 7.5 7.5 0 0 1 349 446.5 L 1861 446.5  A 7.5 7.5 0 0 1 1868.5 454 L 1868.5 488  A 7.5 7.5 0 0 1 1861 495.5 L 349 495.5  A 7.5 7.5 0 0 1 341.5 488 L 341.5 454  Z " stroke-width="1" stroke="#81d3f8" fill="none" stroke-opacity="0.3254901960784314" />
    </g>
  </defs>
  <g transform="matrix(1 0 0 1 -341 -446 )">
    <use xlink:href="#widget7" filter="url(#filter6)" />
    <use xlink:href="#widget7" />
  </g>
</svg>