<?xml version="1.0" encoding="utf-8"?>
<svg version="1.1" xmlns:xlink="http://www.w3.org/1999/xlink" width="68px" height="68px" xmlns="http://www.w3.org/2000/svg">
  <g transform="matrix(1 0 0 1 -56 -84 )">
    <path d="M 90 84  C 109.03999999999999 84  124 98.96  124 118  C 124 137.04  109.03999999999999 152  90 152  C 70.96 152  56 137.04  56 118  C 56 98.96  70.96 84  90 84  Z " fill-rule="nonzero" fill="#ffffff" stroke="none" />
    <path d="M 90 84.5  C 108.76 84.5  123.5 99.24  123.5 118  C 123.5 136.76  108.76 151.5  90 151.5  C 71.24 151.5  56.5 136.76  56.5 118  C 56.5 99.24  71.24 84.5  90 84.5  Z " stroke-width="1" stroke="#d9001b" fill="none" />
  </g>
</svg>